<?xml version="1.0" standalone="no"?>
<!DOCTYPE svg PUBLIC "-//W3C//DTD SVG 1.1//EN" "http://www.w3.org/Graphics/SVG/1.1/DTD/svg11.dtd">
<svg xmlns="http://www.w3.org/2000/svg" version="1.1" viewBox="0 0 2048 504" width="2048" height="504">
<path transform="translate(175,1)" d="m0 0 6 4 11 14 10 15 7 17 3 9 3 14 3-14 1-8 1-28 2-1 8 7 9 10 9 13 9 15 8 17 5 15 4 20v14l-4 18-8 16-7 11-6 7 1 9 4 17v24l-5 14-7 11-9 10-9 8-12 8-40 27-20 14-18 13-13 11-8 9-10 15-6 13-5 18-3 20-4-2-8-11-12-22-6-15-3-14-3 1-2 7-4 30-2 4-7-7-9-13-13-23-8-19-5-17-3-17v-16l4-17 5-13 8-14 4-5-1-6-5-19-1-7v-14l3-14 8-16 9-11 9-9 17-13 10-7 25-16 12-8 18-13 16-13 13-13 10-14 7-15 2-10 1-20z" fill="#636063"/>
<path transform="translate(1798,29)" d="m0 0h58l8 2 9 12 15 23 12 19 14 22 10 15 12 19 14 22 9 15 8 14 6 10 2 1-2-18v-139l6-10 8-5 9-2h52v303l-11 1h-57l-8-11-12-19-16-25-13-20-12-19-9-14-21-32-8-14-10-19-2-1 2 28v126l-4 9-4 5-8 4-11 2h-47l-1-3v-219l1-81z" fill="#71C2D0"/>
<path transform="translate(472,24)" d="m0 0h26l18 2 23 5 15 5 16 8 9 6 10 9 6 8 5 10 2 9v35h-66l-3-9-4-6-5-4-14-6-15-2h-17l-17 3-13 5-13 9-10 10-8 14-5 12-3 12-1 10v18l4 20 7 17 9 13 10 11 14 10 13 6 12 3h28l21-5 18-8 18-12 14-12 4 4 14 20 12 17 8 12-3 5-11 10-18 13-18 10-20 8-18 5-17 3-11 1h-21l-24-3-20-5-15-6-19-10-14-10-13-12-9-10-11-16-9-17-7-19-4-16-3-23v-28l3-20 6-20 8-18 8-14 10-13 12-13 12-10 18-11 16-8 13-5 22-5z" fill="#71C2D0"/>
<path transform="translate(1271,24)" d="m0 0h24l24 3 21 5 20 8 11 6 9 7 9 9 7 12 3 10v37h-66l-3-11-5-6-14-7-17-3h-20l-12 2-14 5-11 6-12 11-8 11-7 16-3 12-1 9v23l3 16 5 13 7 13 9 11 8 8 10 7 12 6 14 4h29l17-4 13-5 12-6 12-8 11-9 5-4 4 2 12 18 13 18 9 13-1 4-9 9-17 13-15 9-19 9-18 6-19 4-18 2h-19l-18-2-20-4-21-7-19-10-14-10-12-11-9-9-10-14-10-17-8-20-6-25-2-19v-24l3-21 4-17 8-19 8-15 10-14 12-13 10-9 16-11 19-10 16-6 16-4z" fill="#71C2D0"/>
<path transform="translate(887,29)" d="m0 0h119l20 2 15 4 13 6 11 7 12 11 8 10 8 14 6 16 3 14 1 9v23l-2 14-5 17-7 16-10 14-11 11-13 9-15 7-16 4-8 1h-56v95h-75v-301zm74 62-1 1v83l2 1h31l10-2 8-4 5-4 6-9 4-12 1-16-3-15-4-8-7-8-10-5-9-2z" fill="#71C2D0"/>
<path transform="translate(739,109)" d="m0 0h22l17 3 15 5 13 7 15 12 9 11 8 13 7 19 4 20v17l-4 8-6 5-4 2-7 1-110 6h-7l4 11 8 12 12 9 11 4 5 1h21l15-4 11-5 14-9 6-5h2v-2l3 1 7 11 14 21 8 13-1 4-9 8-15 10-21 10-20 6-19 3h-28l-18-3-18-6-19-10-13-11-7-7-10-13-8-15-6-17-3-14-1-10v-21l3-19 6-18 8-15 9-12 13-13 14-9 17-8 18-5zm3 54-12 3-6 4-8 9-5 11 1 4h14l44-2 3-1 1-5-4-10-7-8-7-4-4-1z" fill="#71C2D0"/>
<path transform="translate(1454,29)" d="m0 0h48l12 3 6 4 5 8 2 7 1 207 2 9 9 2 114 1 1 1v29l-1 16-5 9-5 4-9 3-6 1h-151l-12-3-6-4-4-6-3-14v-275z" fill="#71C2D0"/>
<path transform="translate(1688,29)" d="m0 0h69l1 1 1 71v230l-5 2h-66l-1-1v-301z" fill="#71C2D0"/>
<path transform="translate(175,1)" d="m0 0 6 4 11 14 10 15 7 17 3 9 2 11-1 6-7 14-8 11-9 10-20 20-14 11-19 14-24 16-17 11-27 18-14 10-11 9-10 9-10 10h-2l-6-21-1-7v-14l3-14 8-16 9-11 9-9 17-13 10-7 25-16 12-8 18-13 16-13 13-13 10-14 7-15 2-10 1-20z" fill="#71C2D0"/>
<path transform="translate(246,191)" d="m0 0 3 1 4 15 1 5v24l-5 14-7 11-9 10-9 8-12 8-40 27-20 14-18 13-13 11-8 9-10 15-6 13-5 18-3 20-4-2-8-11-12-22-6-15-2-8v-13l6-15 9-15 10-13 18-18 17-13 18-13 14-10 19-13 14-10 24-16 22-15 16-12z" fill="#70C1CF"/>
<path transform="translate(1812,406)" d="m0 0h19l8 10 11 14 9 11 13 16v-44l-5-4-2-1v-2h17l5 1-3 2-5 5-1 65h-3l-10-12-11-14-12-14-11-14-4-3 1 48 1 5 8 2v2h-25v-2l8-3 1-2 1-14v-16l-1-29-9-6z" fill="#636265"/>
<path transform="translate(832,406)" d="m0 0h33l10 2 8 4 5 7v14l-4 6-5 4-10 3-8 1h-10l1 25 1 3 8 3v1h-29v-2l7-3v-62l-5-3-2-1zm20 4-1 1v32h14l8-4 4-7v-11l-4-7-5-3-4-1z" fill="#636367"/>
<path transform="translate(1353,404)" d="m0 0h2l1 14v11l-4-4-6-9-8-5-3-1h-11l-8 3-8 9-4 10v20l4 11 6 7 7 4 4 1h11l11-4 7-5h3l-2 4-6 5-8 4-7 2h-12l-11-3-9-6-6-7-4-9-1-3v-20l4-10 6-8 8-6 11-4h17l8 2 6-1z" fill="#636266"/>
<path transform="translate(400,405)" d="m0 0h17l8 2 6-1 4-1 1 9v15h-2l-7-12-5-4-7-3h-10l-10 4-6 7-4 9-1 6v14l3 10 5 8 5 4 7 3h13l10-4 9-6 1 4-8 6-12 5-5 1h-10l-13-4-8-6-6-8-4-11v-18l4-11 7-9 9-6z" fill="#636265"/>
<path transform="translate(1006,428)" d="m0 0h9l9 3 3-3h3v68l1 4 4 4h-23l1-2 5-2 1-2v-23l-8 4-4 1h-7l-7-4-6-8-1-3v-16l4-10 4-5 8-5zm0 3-6 4-4 6-2 9 1 11 4 8 6 5h8l6-3 2-2v-29l-3-6-5-3z" fill="#636366"/>
<path transform="translate(741,404)" d="m0 0h2l1 68 4 2-3 2-10 3-1-4-8 4-8 1-8-2-5-4-4-9-1-4v-11l4-11 7-8 7-3h9l6 3v-20l-5-1 4-3zm-21 27-6 4-5 8-1 11 2 10 4 6 5 4 7 1 6-3 2-2v-32l-6-6z" fill="#63666A"/>
<path transform="translate(1723,404)" d="m0 0h1l1 67 5 2v2l-11 4h-3v-4l-8 4-8 1-8-2-6-5-4-8-1-4v-9l2-8 5-8 7-6 5-2h8l7 3v-20l-4-2 9-4zm-22 27-6 4-5 10v14l3 8 4 5 7 3 7-1 4-3 1-3v-28l-4-6-5-3z" fill="#636366"/>
<path transform="translate(1439,428)" d="m0 0 2 1 1 6 7-5 3-1h11l6 7 1 8v32l5 1v2h-21v-2l5-2 1-2v-31l-3-6-1-1h-6l-6 4-2 2v34l5 3v1h-21v-2l5-1v-37l-6-6z" fill="#636467"/>
<path transform="translate(505,429)" d="m0 0h3l2 6 7-5 3-1h10l5 4 2 5 1 37 4 2v2h-19l4-4 1-5v-26l-3-7-3-2-6 1-6 5-1 35 5 2v1h-20l4-4 1-3v-33l-6-6z" fill="#636468"/>
<path transform="translate(1040,429)" d="m0 0h15l1 2v37l2 4 9 1 6-4h2l-1-35-7-4v-1h17l1 2v41l6 2-2 2-9 2-4 1v-6l-11 6-7 1-6-2-5-5-1-4-1-36-5-2z" fill="#636266"/>
<path transform="translate(1987,428)" d="m0 0h14l5 3 4 5 1 3v34h8l-1 3-5 3h-7l-5-5-10 5h-10l-5-4-2-8 3-7 8-7 16-7v-9l-3-5h-9l-2 2-2 10-1 1h-5l-2-2v-6l6-7zm12 22-10 5-6 7 1 7 5 5 7-1 6-4v-17l-1-2z" fill="#636164"/>
<path transform="translate(1576,428)" d="m0 0h12l6 3 4 6 1 15v14l1 7h7l-2 4-4 2h-8l-3-4v-2l-8 5-3 1h-11l-5-6-1-2 1-9 5-6 16-8 6-1-2-13-2-2h-9l-2 2-2 10-1 1-7-1-1-6 7-8zm11 22-10 5-5 5-1 6 2 5 4 3 8-1 5-4 1-2-1-17z" fill="#636568"/>
<path transform="translate(1908,428)" d="m0 0h12l7 3 3 5 1 5 1 33 7-2-2 4-5 3h-6l-5-5-10 5h-10l-5-4-2-5 1-6 4-6 8-6 14-6v-10l-3-4h-9l-3 3-1 9-1 1h-5l-2-2v-6l6-7zm10 22-10 6-4 4-1 6 3 6 3 2 7-1 6-4v-19z" fill="#636366"/>
<path transform="translate(1185,428)" d="m0 0h13l6 4 3 4 1 4 1 33h7l-2 4-4 2h-7l-3-3v-3l-12 6h-10l-6-7v-8l4-6 5-4 17-8v-10l-3-4h-8l-3 2-1 9-2 2h-5l-2-2v-6l5-6zm11 22-11 6-4 5v8l5 5h6l7-4 1-2-1-18z" fill="#636265"/>
<path transform="translate(632,429)" d="m0 0h15l10 5 6 7 2 5v15l-5 10-7 7-4 2-10 1-10-3-8-7-4-9v-15l4-9 7-7zm3 3-6 5-3 8v12l4 13 4 5 5 3h7l6-4 3-6 1-7v-8l-2-9-5-8-5-4z" fill="#636265"/>
<path transform="translate(1752,429)" d="m0 0h13l7 4 4 6 1 3v7h-33l2 12 4 7 5 3 10 1 8-4 5-5-1 5-7 8-8 4h-10l-7-3-6-7-3-8v-14l6-12 7-6zm2 3-5 3-5 6v4l5 1h13l4-1-1-8-6-5z" fill="#636367"/>
<path transform="translate(459,429)" d="m0 0h14l6 3 4 5 3 10-1 2h-25l-8-1 1 11 4 8 8 5h9l7-4 5-6 1 3-4 7-6 5-9 3h-7l-8-3-6-7-3-6v-16l4-9 7-8zm4 3-7 3-4 5v5l7 1h14l1-1-1-7-5-5z" fill="#636467"/>
<path transform="translate(770,429)" d="m0 0h13l6 3 5 6 3 9-1 2h-34l3 13 4 6 4 3 3 1h9l6-4 5-6h2l-2 6-7 8-5 3-4 1h-9l-7-3-6-7-3-7v-15l6-12 7-6zm2 3-5 3-4 5-1 5 7 1h15l1-1-1-7-5-5z" fill="#636467"/>
<path transform="translate(909,429)" d="m0 0h12l8 4 5 8 1 7-33 1-1 5 3 10 8 7 3 1h8l6-3 7-8 1 3-6 9-9 6-4 1h-8l-6-2-5-4-4-8-2-8v-10l6-12 6-5zm1 3-6 4-3 5v4l4 1h18l1-3-3-8-5-3z" fill="#636468"/>
<path transform="translate(2038,403)" d="m0 0h1l1 72 1 1 7 1v2h-25v-2l6-2v-64l-7-1v-2z" fill="#636164"/>
<path transform="translate(1532,428)" d="m0 0h7l9 3 5 5v5l-3 3-5-1-5-9-2-2-9 1-5 5-3 7v12l3 8 6 5 7 2 6-1 6-4 4-6 1 4-6 8-9 6h-13l-7-4-4-5-3-7v-15l5-10 4-5 7-4z" fill="#636265"/>
<path transform="translate(1377,404)" d="m0 0h4l1 72 7 2v1h-24l1-2 5-1 1-14v-40l-1-10-7-2v-2z" fill="#636165"/>
<path transform="translate(1624,428)" d="m0 0h9l9 2v14h-2l-4-9-4-3h-8l-3 3v7l6 5 11 6 6 6 1 3v8l-4 6-7 4h-10l-11-2v-14h2l5 10 7 3 7-1 3-3v-7l-6-5-13-8-4-4-1-3v-7l3-6 5-4z" fill="#636367"/>
<path transform="translate(1233,428)" d="m0 0h8l10 2v15l-2-2-4-9-4-2h-8l-3 3v6l5 5 14 8 5 6 1 9-3 5-6 5-3 1h-9l-11-2-1-3 1-11 2 1 4 9 3 2 9 1 4-2 2-6-2-5-16-10-5-5-2-4 1-9 5-6z" fill="#636568"/>
<path transform="translate(1140,428)" d="m0 0h9l10 2v13l-3-3-4-6-3-2h-8l-3 3v7l8 6 10 6 6 7 1 7-3 6-5 4-7 2-11-1-7-1v-14h2l5 10 7 3 7-1 3-3v-7l-7-6-12-7-4-5-1-8 4-8 3-3z" fill="#636367"/>
<path transform="translate(1955,416)" d="m0 0h2v13h10l1 4h-11v35l2 5 4 1 7-3-2 4-6 4h-10l-4-5-1-6v-34l-6-1 3-5 5-5z" fill="#63666A"/>
<path transform="translate(955,428)" d="m0 0h10l9 2v14l-2-2-4-8-4-2h-7l-4 3-1 5 4 5 14 8 5 4 3 6v7l-4 6-5 3-10 1-13-2-1-15 3 3 4 8 7 3 8-1 3-5-2-7-13-8-6-4-3-5-1-5 2-7 5-5z" fill="#636568"/>
<path transform="translate(606,428)" d="m0 0 5 1 3 3-1 6-1 1-7-1-5-1-4 4-1 2v33l8 2v1h-25l1-2 5-2 1-5v-22l-1-11-6-2 2-2 11-4h3v7l9-7z" fill="#636366"/>
<path transform="translate(561,416)" d="m0 0h2v13h8l3 1 1 3h-12v34l2 6 4 1 7-3-2 4-5 4h-11l-3-4-1-4-1-32-1-5-4-2 7-8z" fill="#636366"/>
<path transform="translate(1110,429)" d="m0 0h4l1 46 6 3v1h-24v-2l7-1v-40h-5l1-3z" fill="#636569"/>
<path transform="translate(1409,429)" d="m0 0h3l1 47 6 2v1h-24l1-2 5-2 1-1 1-37-6-1v-2z" fill="#636064"/>
<path transform="translate(1495,429)" d="m0 0h3l1 47 6 2v1h-23v-2l6-2v-38l-5-1 1-3z" fill="#636063"/>
<path transform="translate(1419,404)" d="m0 0 5 1-1 6-11 8-9 5h-2l2-5 13-13z" fill="#63666A"/>
<path transform="translate(1106,404)" d="m0 0 6 1 2 2v5l-3 3-7-1-1-2v-6z" fill="#636165"/>
<path transform="translate(1490,404)" d="m0 0h5l3 3v5l-3 3-6-1-1-1v-7z" fill="#636265"/>
<path transform="translate(1130,464)" d="m0 0h2l5 10 7 3v2l4 1-11-1-7-1z" fill="#656E73"/>
<path transform="translate(945,463)" d="m0 0 3 3 4 8 7 3v2l-13-1z" fill="#646B6F"/>
</svg>