<?xml version="1.0" standalone="no"?>
<!DOCTYPE svg PUBLIC "-//W3C//DTD SVG 1.1//EN" "http://www.w3.org/Graphics/SVG/1.1/DTD/svg11.dtd">
<svg xmlns="http://www.w3.org/2000/svg" version="1.1" viewBox="0 0 2048 597" width="2048" height="597">
<path transform="translate(1751,35)" d="m0 0h67l9 1 7 6 29 44 13 21 12 18 15 24 13 21 17 26 13 22 8 13 4 8 2 1v-12l-2-24v-136l2-13 5-10 8-7 12-3h63v358l-3 1h-76l-5-4-14-21-11-17-13-21-12-18-14-22-10-16-10-15-11-18-7-10-9-15-13-25-2-3-3-1 2 25 1 22 1 61v50l-1 19-2 11-5 8-7 6-9 3-9 1h-56l-1-1v-116l1-236z" fill="#72C3CF"/>
<path transform="translate(175,29)" d="m0 0h41l23 3 25 6 19 7 14 7 12 9 13 13 6 10 5 12 1 5v41l-2 1h-74l-3-4-4-10-5-6-14-7-16-4-18-1-16 1-19 4-12 5-12 8-12 11-10 14-5 11-5 16-2 11v36l4 17 7 19 10 15 12 13 10 9 14 8 12 5 11 3 11 1h10l17-2 21-5 16-7 14-8 14-10 10-9 4-3 4 2 9 11 13 19 13 18 7 10-2 5-13 13-19 14-15 9-23 11-24 8-20 4-17 2h-33l-23-3-22-5-19-7-25-13-19-14-20-20-11-15-10-17-10-22-7-25-4-24-1-11v-29l3-21 6-24 8-20 10-19 8-11 9-11 11-12 11-9 14-10 16-9 20-9 20-6 19-4z" fill="#71C2CE"/>
<path transform="translate(1123,29)" d="m0 0h36l25 3 18 4 16 5 18 8 13 8 10 9 9 10 8 15 3 13 1 37-2 2h-76l-3-7-3-8-8-7-13-6-13-3-22-1-15 1-21 5-15 8-10 8-8 8-9 13-7 16-4 16-1 9v28l2 13 4 14 5 12 10 16 12 14 11 9 16 9 13 5 9 2h30l20-4 17-6 16-8 15-10 14-12 4-3 3 1 13 19 13 18 9 12 6 10-1 5-8 9-17 13-17 11-19 10-20 8-18 5-32 5h-34l-26-4-16-4-15-5-20-9-16-10-10-8-14-12-11-12-12-17-9-16-8-18-5-15-4-17-3-21-1-13v-16l2-19 5-25 6-18 8-18 14-22 9-11 7-8 8-7 9-8 15-10 16-9 16-7 19-6 25-5z" fill="#71C2CE"/>
<path transform="translate(674,35)" d="m0 0h82l66 1 19 2 17 5 16 8 14 10 12 12 9 13 8 15 6 16 3 15 1 13v30l-2 14-5 17-6 15-7 13-10 13-8 8-12 9-15 8-13 5-18 4-11 1h-61l-1 112h-87l-1-1v-338l1-19zm85 74-1 6v82l1 10 1 1h41l13-4 11-8 7-9 5-16v-27l-4-13-6-10-7-6-8-4-9-2z" fill="#72C3CF"/>
<path transform="translate(493,130)" d="m0 0h31l16 3 15 4 11 5 12 7 10 8 13 13 10 16 7 14 5 16 3 16 1 18-2 10-6 8-7 5-10 2-138 7 2 9 6 11 11 12 13 8 9 3 5 1h27l15-4 17-8 18-12 7-4 8 9 26 39 2 4-1 5-9 9-16 11-19 10-19 7-23 5-14 2h-32l-24-4-20-7-19-10-13-10-12-11-12-16-9-16-6-15-5-17-3-21v-19l3-20 6-21 11-23 8-11 9-10 9-9 14-10 15-8 18-6 18-4zm5 63-10 3-10 6-8 9-5 10-1 8 1 1 29-1 40-2 4-3-1-8-7-13-7-6-9-4z" fill="#71C2CE"/>
<path transform="translate(1344,35)" d="m0 0h51l16 2 9 4 6 7 3 7 2 16 1 243 4 4 3 1 140 1 2 4v40l-3 14-5 8-6 4-10 3-15 1h-170l-12-2-6-3-8-9-3-10-1-6v-323z" fill="#72C3CF"/>
<path transform="translate(1622,35)" d="m0 0h81l1 1 1 304v52l-6 2h-78l-2-4v-264l1-83 1-7z" fill="#72C3CF"/>
<path transform="translate(1768,480)" d="m0 0 22 1 5 5 12 16 9 11 13 16 11 13 1-31v-19l-4-6-9-4v-1h30l-4 4-5 4-2 4-1 75-4-2-10-12-11-15-12-14-13-15-8-9-2-1 1 57 3 6 4 4h-24v-2l5-2h3l2-17v-54l-3-5-10-5z" fill="#645D5B"/>
<path transform="translate(606,481)" d="m0 0h38l12 2 9 4 6 7 2 5v11l-3 8-5 5-5 3-16 3h-15l1 34 9 2v3l-32-1v-2l9-2v-73l-3-4-7-3zm26 4-3 3-1 3v16l1 18h16l7-3 5-4 4-8v-9l-4-9-6-5-8-2z" fill="#645D5C"/>
<path transform="translate(94,480)" d="m0 0h22l7 2h7l4-2h3l1 28h-3l-7-12-4-5-6-4-9-2h-7l-10 3-10 9-5 12-1 6v20l4 13 5 7 9 6 7 2h13l9-3 10-6 3-3h2l-1 5-7 6-8 4-10 3h-18l-10-3-8-5-9-9-6-12-2-13 1-14 5-12 6-8 7-7 8-4z" fill="#645D5B"/>
<path transform="translate(813,507)" d="m0 0h9l10 4 4-2 5-1v85l5 2 1 2h-26l1-2 5-3 2-2 1-28-10 5-4 1h-11l-7-4-5-6-4-10v-15l4-11 7-9 6-4zm3 3-6 2-5 4-5 10-1 3v14l4 11 5 6 4 2h9l8-4 1-1v-39l-5-6z" fill="#645D5B"/>
<path transform="translate(1187,480)" d="m0 0h18l9 2h6l7-2v27l-3-3-6-9v-2l-4-2-6-4-7-2h-11l-8 3-6 4-6 9-4 13-1 14 3 15 4 8 5 5 5 4 9 3h12l10-3 10-6 3-2h3l-1 4-11 8-9 4-9 2h-10l-12-3-10-5-9-9-5-10-3-10v-15l3-11 5-10 9-9 12-6z" fill="#645D5B"/>
<path transform="translate(1662,479)" d="m0 0h2l1 81h5l1 2-12 4h-5v-3l-9 4-4 1h-8l-8-3-5-4-5-9-1-3v-18l4-11 8-9 6-3 4-1h7l9 3 2 1-1-23-6-2 4-4 8-2zm-26 32-6 4-4 6-2 5-1 13 2 9 4 8 7 6 8 1 8-4 2-4v-36l-5-6-4-2z" fill="#645C5A"/>
<path transform="translate(500,479)" d="m0 0 2 1v79l4 2v2l-9 2-6 1v-3l-9 4-5 1h-9l-8-4-6-7-4-10v-14l4-11 7-9 8-5 4-1h7l11 5-1-24-8-2 3-3zm-24 31-8 4-5 6-3 9v15l4 10 5 6 6 3h7l7-4 2-3v-35l-4-7-4-3z" fill="#645D5B"/>
<path transform="translate(1326,508)" d="m0 0h2l1 8 11-7 2-1h12l5 4 3 7 1 45 5 2v1h-23l5-4 1-2v-37l-3-6v-2l-9-1-9 6-1 2v37l1 5 6 1v1h-24l5-5v-45l-7-2v-3z" fill="#645C5A"/>
<path transform="translate(220,508)" d="m0 0h3v9l10-7 5-2h9l7 4 3 7 1 41 2 4 3 3h-14l-7-1 4-5v-38l-3-6-4-2-6 1-6 4-2 2-1 5v37l6 2v1h-22v-2l3-1 1-2v-40l-2-5-5-2 3-3z" fill="#645C5B"/>
<path transform="translate(853,509)" d="m0 0h19v46l2 4 4 2h7l9-6 1-13-1-26-5-5-3-2h20v51l6 2v2l-11 2-5 1-2-6-9 5-7 2-9-1-6-5-2-5-1-40-2-5-5-2z" fill="#646160"/>
<path transform="translate(1490,507)" d="m0 0h8l10 3 5 4 2 7 1 40 9-1-2 4-4 3-9 1-5-6-5 2-8 3-10 1-6-4-3-4-1-3v-7l6-8 9-6 16-7h2l-1-12-3-5-2-1-10 1-2 2-1 12-2 1h-6l-4-5 2-5 4-5 6-4zm13 25-14 8-5 5-1 7 3 8 2 1h9l6-4 2-3v-22z" fill="#645D5B"/>
<path transform="translate(1024,507)" d="m0 0h15l8 4 4 5 1 4 1 27v14h9l-2 4-8 3h-5l-4-4v-3l-13 6-4 1h-7l-5-3-4-5-1-9 4-7 9-7 16-7 3-1v-10l-3-7-2-1h-8l-5 4-1 10-2 2h-6l-2-2-1-6 4-6zm14 26-14 8-4 5v8l3 5 4 3 8-1 7-5 1-3-1-19z" fill="#645D5B"/>
<path transform="translate(1976,507)" d="m0 0h15l7 3 4 5 2 8 1 39 9-2v2l-7 5h-9l-5-6-12 6-10 1-7-4-3-5v-9l5-8 9-6 11-5 7-1-1-14-2-4-2-1h-9l-4 3-1 11-2 2-7-1-2-4 1-5 6-7zm16 25-14 7-6 6-1 8 3 6 4 3 9-2 6-4 1-1v-15l-1-8z" fill="#645D5B"/>
<path transform="translate(1881,507)" d="m0 0h15l7 3 4 5 2 7 1 39 9-1-4 5-6 3-6-1-4-5-6 2-10 4-9-1-6-5-2-4v-7l4-7 8-7 17-7h3v-12l-3-6-2-1h-8l-5 4-1 11-2 1h-6l-2-3v-6l4-6zm16 25-15 8-5 6v10l5 5 5 1 8-3 4-3v-22z" fill="#645D5B"/>
<path transform="translate(373,508)" d="m0 0h14l10 5 6 5 5 9 1 4v13l-4 11-9 10-5 3-4 1h-12l-8-3-8-7-5-9-2-6v-14l4-10 5-6 8-5zm1 4-7 5-3 5-1 4v18l4 12 4 6 6 4h10l6-4 3-5 2-9v-14l-4-12-8-9-2-1z" fill="#645D5B"/>
<path transform="translate(167,508)" d="m0 0h12l7 3 5 4 4 8 2 8h-41l1 12 5 10 6 5 11 2 7-2 6-5 4-5h2l-2 6-5 7-7 5-6 2h-13l-8-4-6-7-4-8v-18l4-10 6-8 6-4zm1 4-6 3-6 8-1 4 3 1h25l-1-8-4-6-4-2z" fill="#645D5B"/>
<path transform="translate(1699,508)" d="m0 0h11l8 3 6 7 4 11v2l-2 1-39-1 2 13 5 10 8 5h12l6-3 7-8h2l-2 6-4 6-6 5-7 3h-14l-8-4-6-7-3-7-1-12 1-9 6-12 8-7zm-1 4-6 4-5 8 1 4h26v-7l-4-7-4-2z" fill="#645C5B"/>
<path transform="translate(701,508)" d="m0 0h9l8 3 8 8 3 8-2 4h-39l2 14 4 8 6 5 3 1h13l6-4 8-9h2l-1 5-7 9-8 6-6 2h-12l-8-3-6-7-4-11-1-15 2-7 8-11 7-5zm-2 4-5 3-5 6-1 6 2 1h25v-7l-4-7-3-2z" fill="#645D5B"/>
<path transform="translate(537,508)" d="m0 0h9l10 3 6 8 3 10v2l-40 1v11l4 9 8 7 4 1h7l8-3 6-7 3-3 1 3-3 6-4 5-5 4-8 3h-13l-6-3-5-5-5-7-2-6v-13l3-9 6-9 7-6zm-2 4-5 3-5 6-2 4v3h28l-1-9-5-6-2-1z" fill="#645D5B"/>
<path transform="translate(1256,478)" d="m0 0 2 1v85l8 2v1h-26l1-2 5-1 1-77-9-2-2-1v-2l16-3z" fill="#645E5C"/>
<path transform="translate(1436,507)" d="m0 0h9l10 4 6 5 1 6-4 4-6-1-7-12-2-1h-7l-8 5-4 6-1 4v14l4 11 6 5 5 2h9l8-5 3-1 2-4 3-2-1 6-9 10-8 4-3 1h-9l-10-4-7-8-3-8v-16l3-9 6-8 6-5z" fill="#645D5B"/>
<path transform="translate(2034,479)" d="m0 0h4v80l1 5 7 2-2 2-27-1 2-2 7-3 1-2v-74h-9v-3z" fill="#645C5A"/>
<path transform="translate(1547,507)" d="m0 0 11 1 8 2 1 8v10l-2-2-4-10-4-4-9-1-4 2-2 3v8l7 6 16 8 4 5 2 6-1 8-5 7-8 4h-12l-11-2-1-1v-17l3 3 5 10v2l7 2h8l5-5 1-5-3-5-11-7-10-7-5-6v-12l4-6 6-4z" fill="#645D5B"/>
<path transform="translate(972,507)" d="m0 0h10l12 2 1 17h-2l-5-10-5-4-8-1-5 3-2 6 3 6 20 12 7 8 1 8-3 7-8 6-3 1h-12l-12-1-1-4 1-14 2 1 3 8 5 5 4 2h9l4-4 1-7-3-5-18-11-7-7-1-3v-7l3-7 5-5z" fill="#645E5C"/>
<path transform="translate(753,507)" d="m0 0h10l12 3 1 7v8l-2 1-6-12-3-2-8-1-6 3-2 4 1 7 4 2 17 10 5 4 3 6v11l-5 6-8 4h-13l-11-2-1-6v-11h2l6 12v2l7 2h9l4-4 1-2v-6l-4-5-17-10-7-8-1-3v-7l5-8 5-4z" fill="#645D5C"/>
<path transform="translate(1938,492)" d="m0 0h2v16l12 1 1 4h-13v40l3 8 3 1 8-4 2 1-6 7-6 2h-8l-5-4-2-4-1-46-7-1 5-6h2l2-4z" fill="#645D5B"/>
<path transform="translate(1084,507)" d="m0 0 19 2v17l-2-2-4-9-7-4h-7l-5 5-1 5 5 6 19 11 5 6 1 2v10l-4 7-5 4-3 1h-14l-11-2v-17l3 3 3 8 4 4 3 1h9l5-3 2-4-1-6-7-6-16-10-5-6v-11l3-6 6-5z" fill="#645D5C"/>
<path transform="translate(286,493)" d="m0 0 2 2v14h11l4 2-1 2-10 1-4-1v42l2 5 2 1h8v-2l3-1-1 4-5 4-6 2h-7l-6-7-1-3-1-44-6-1 2-4 5-5 7-8z" fill="#645E5C"/>
<path transform="translate(321,508)" d="m0 0h4v8l5-3 6-5h7l5 3v6l-3 3-7-1-3-2-4 1-5 6-1 32 2 7 5 3v1h-26l3-2 4-1 1-5v-33l-1-8-7-2-1-2z" fill="#645D5B"/>
<path transform="translate(937,508)" d="m0 0h4v51l2 5 6 2v1h-28l2-2 6-3v-45l-7-1 3-3z" fill="#645D5C"/>
<path transform="translate(1292,508)" d="m0 0 3 1v55l7 2v1h-27l2-2 5-2 1-14v-12l-1-20-5-2 4-3z" fill="#645D5B"/>
<path transform="translate(1393,508)" d="m0 0h3l1 53 1 3 2 2-22 1-1-2 6-2 2-3v-39l-1-3-6-2v-2z" fill="#645C5A"/>
<path transform="translate(1301,480)" d="m0 0h7v5l-9 8-13 8-4 1 1-4 7-8 9-9z" fill="#645C5A"/>
<path transform="translate(933,478)" d="m0 0 6 1 2 2 1 6-5 5h-5l-5-4 1-7z" fill="#645D5B"/>
<path transform="translate(1388,479)" d="m0 0 7 1 1 1v7l-3 3h-7l-2-3v-6l1-2z" fill="#645C5A"/>
<path transform="translate(961,549)" d="m0 0 2 1 3 8 5 5 4 2 9 1 1 2h-12l-12-1-1-4z" fill="#64605E"/>
<path transform="translate(1401,566)" d="m0 0" fill="#645C5A"/>
<path transform="translate(1276,515)" d="m0 0" fill="#645C5A"/>
</svg>