<?xml version="1.0" standalone="no"?>
<!DOCTYPE svg PUBLIC "-//W3C//DTD SVG 1.1//EN" "http://www.w3.org/Graphics/SVG/1.1/DTD/svg11.dtd">
<svg xmlns="http://www.w3.org/2000/svg" version="1.1" viewBox="0 0 1267 2048" width="1267" height="2048">
<path transform="translate(713,9)" d="m0 0 4 1 11 10 7 8 13 13 9 11 12 15 13 18 15 22 13 21 10 19 13 30 12 29 12 36 5 21 3 18 5 15 4 3 3-3 5-15 10-71 1-9 2-53 3-49 1-4 5 1 28 28 7 8 12 13 9 10 9 11 14 18 11 16 18 27 11 18 12 21 17 33 14 30 15 38 12 35 8 30 6 32 3 24 1 18v31l-2 23-5 27-9 31-11 27-12 23-14 22-14 19-10 13-9 10-9 11-10 14-2 4 1 9 8 25 12 45 4 18 3 28v43l-2 21-5 21-8 22-8 18-10 18-7 11-14 19-9 11-12 13-14 14-8 7-12 10-38 28-19 13-43 29-48 32-43 29-15 10-14 9-16 11-14 10-19 13-17 13-15 11-13 10-14 10-20 15-14 10-11 9-14 11-16 13-20 18-15 15-7 8-10 11-11 14-14 19-12 18-11 18-12 22-12 25-12 36-8 31-9 46-7 29-6 15-3 2-8-8-14-19-12-17-13-21-13-24-9-16-12-25-17-44-10-26-9-31-5-19-5-11-4 1-4 9-4 17-7 44-10 57-5 30-1 4-2 19h-3l-13-13-9-11-10-13-29-44-12-19-13-22-15-27-14-26-10-21-15-37-13-36-12-40-7-30-8-50-2-16-1-20 3-27 7-40 8-30 11-30 11-25 12-24 10-17 11-18 8-13 6-12v-9l-6-22-10-32-7-27-4-27-2-25v-32l3-25 5-24 7-21 12-26 13-23 13-19 14-19 11-13 12-13h2v-2l8-7 15-14 11-9 16-13 16-12 18-14 19-14 14-10 24-16 24-15 30-20 20-13 41-27 18-12 16-11 20-14 51-36 16-13 13-10 14-12 24-22 15-14 13-13 7-8 9-10 7-8 11-13 13-18 10-15 11-18 10-21 7-19 7-23 5-22 3-39 2-27 2-15z" fill="#636467"/>
<path transform="translate(713,9)" d="m0 0 4 1 11 10 7 8 13 13 9 11 12 15 13 18 15 22 13 21 10 19 13 30 12 29 12 36 5 21 3 18 4 13-1 4v9l-6 15-12 24-17 28-7 11-12 17-13 17-8 10-9 10-7 8-9 10-11 12-31 31-8 7-7 7-8 7-15 14-11 9-15 13-14 11-16 13-38 28-19 13-18 13-28 19-15 10-41 27-20 13-12 8-13 10-18 11-25 16-26 17-17 11-22 14-44 29-18 13-20 14-21 16-12 9-14 11-13 11-11 9-7 7-8 7-16 15-12 13-21 21-9 11-4 6h-1l-5-22-12-38-7-27-4-27-2-25v-32l3-25 5-24 7-21 12-26 13-23 13-19 14-19 11-13 12-13h2v-2l8-7 15-14 11-9 16-13 16-12 18-14 19-14 14-10 24-16 24-15 30-20 20-13 41-27 18-12 16-11 20-14 51-36 16-13 13-10 14-12 24-22 15-14 13-13 7-8 9-10 7-8 11-13 13-18 10-15 11-18 10-21 7-19 7-23 5-22 3-39 2-27 2-15z" fill="#71C1CD"/>
<path transform="translate(1e3 770)" d="m0 0h2l8 25 12 45 4 18 3 28v43l-2 21-5 21-8 22-8 18-10 18-7 11-14 19-9 11-12 13-14 14-8 7-12 10-38 28-19 13-43 29-48 32-43 29-15 10-14 9-16 11-14 10-19 13-17 13-15 11-13 10-14 10-20 15-14 10-11 9-14 11-16 13-20 18-15 15-7 8-10 11-11 14-14 19-12 18-11 18-12 22-12 25-12 36-8 31-9 46-7 29-6 15-3 2-8-8-14-19-12-17-13-21-13-24-9-16-12-25-17-44-10-26-9-31-5-19-2-6v-16l4-15 13-30 13-26 12-22 13-22 10-15 11-16 13-16 11-14 13-15 11-12 22-22 11-9 19-19 8-7 11-10 40-30 17-12 18-13 13-9 36-26 19-13 14-10 19-13 18-13 25-17 17-13 19-13 34-24 44-29 16-12 23-15 12-8 25-17 32-22 40-27 17-12 18-13 11-7 10-8 8-8 8-7 10-9 10-8z" fill="#70C0CC"/>
</svg>